<mxfile host="app.diagrams.net" modified="2024-06-01T02:15:26.439Z" agent="Mozilla/5.0 (Windows NT 10.0; Win64; x64) AppleWebKit/537.36 (KHTML, like Gecko) Chrome/123.0.0.0 Safari/537.36 OPR/109.0.0.0" etag="zCQ4ilr3iptu4q8iCmR9" version="24.4.13" type="github">
  <diagram id="C5RBs43oDa-KdzZeNtuy" name="Page-1">
    <mxGraphModel dx="849" dy="531" grid="1" gridSize="10" guides="1" tooltips="1" connect="1" arrows="1" fold="1" page="1" pageScale="1" pageWidth="827" pageHeight="1169" math="0" shadow="0">
      <root>
        <mxCell id="WIyWlLk6GJQsqaUBKTNV-0" />
        <mxCell id="WIyWlLk6GJQsqaUBKTNV-1" parent="WIyWlLk6GJQsqaUBKTNV-0" />
        <mxCell id="f-X-oOXz8kQgfOrzTP2Q-2" value="" style="edgeStyle=orthogonalEdgeStyle;rounded=0;orthogonalLoop=1;jettySize=auto;html=1;" edge="1" parent="WIyWlLk6GJQsqaUBKTNV-1" source="f-X-oOXz8kQgfOrzTP2Q-0" target="f-X-oOXz8kQgfOrzTP2Q-3">
          <mxGeometry relative="1" as="geometry">
            <mxPoint x="335" y="150" as="targetPoint" />
          </mxGeometry>
        </mxCell>
        <mxCell id="f-X-oOXz8kQgfOrzTP2Q-0" value="Start" style="ellipse;whiteSpace=wrap;html=1;" vertex="1" parent="WIyWlLk6GJQsqaUBKTNV-1">
          <mxGeometry x="290" y="50" width="90" height="60" as="geometry" />
        </mxCell>
        <mxCell id="f-X-oOXz8kQgfOrzTP2Q-5" value="" style="edgeStyle=orthogonalEdgeStyle;rounded=0;orthogonalLoop=1;jettySize=auto;html=1;" edge="1" parent="WIyWlLk6GJQsqaUBKTNV-1" source="f-X-oOXz8kQgfOrzTP2Q-3" target="f-X-oOXz8kQgfOrzTP2Q-4">
          <mxGeometry relative="1" as="geometry" />
        </mxCell>
        <mxCell id="f-X-oOXz8kQgfOrzTP2Q-7" value="" style="edgeStyle=orthogonalEdgeStyle;rounded=0;orthogonalLoop=1;jettySize=auto;html=1;" edge="1" parent="WIyWlLk6GJQsqaUBKTNV-1" source="f-X-oOXz8kQgfOrzTP2Q-3" target="f-X-oOXz8kQgfOrzTP2Q-6">
          <mxGeometry relative="1" as="geometry" />
        </mxCell>
        <mxCell id="f-X-oOXz8kQgfOrzTP2Q-3" value="Punya Akun?&amp;nbsp;" style="rhombus;whiteSpace=wrap;html=1;" vertex="1" parent="WIyWlLk6GJQsqaUBKTNV-1">
          <mxGeometry x="280" y="140" width="110" height="70" as="geometry" />
        </mxCell>
        <mxCell id="f-X-oOXz8kQgfOrzTP2Q-21" value="" style="edgeStyle=orthogonalEdgeStyle;rounded=0;orthogonalLoop=1;jettySize=auto;html=1;" edge="1" parent="WIyWlLk6GJQsqaUBKTNV-1" source="f-X-oOXz8kQgfOrzTP2Q-4" target="f-X-oOXz8kQgfOrzTP2Q-20">
          <mxGeometry relative="1" as="geometry" />
        </mxCell>
        <mxCell id="f-X-oOXz8kQgfOrzTP2Q-4" value="Login" style="whiteSpace=wrap;html=1;" vertex="1" parent="WIyWlLk6GJQsqaUBKTNV-1">
          <mxGeometry x="130" y="218" width="105" height="55" as="geometry" />
        </mxCell>
        <mxCell id="f-X-oOXz8kQgfOrzTP2Q-11" value="" style="edgeStyle=orthogonalEdgeStyle;rounded=0;orthogonalLoop=1;jettySize=auto;html=1;" edge="1" parent="WIyWlLk6GJQsqaUBKTNV-1" source="f-X-oOXz8kQgfOrzTP2Q-6" target="f-X-oOXz8kQgfOrzTP2Q-10">
          <mxGeometry relative="1" as="geometry" />
        </mxCell>
        <mxCell id="f-X-oOXz8kQgfOrzTP2Q-6" value="Register" style="whiteSpace=wrap;html=1;" vertex="1" parent="WIyWlLk6GJQsqaUBKTNV-1">
          <mxGeometry x="432" y="215" width="114" height="58" as="geometry" />
        </mxCell>
        <mxCell id="f-X-oOXz8kQgfOrzTP2Q-8" value="YA" style="text;html=1;align=center;verticalAlign=middle;resizable=0;points=[];autosize=1;strokeColor=none;fillColor=none;" vertex="1" parent="WIyWlLk6GJQsqaUBKTNV-1">
          <mxGeometry x="214" y="148" width="40" height="30" as="geometry" />
        </mxCell>
        <mxCell id="f-X-oOXz8kQgfOrzTP2Q-9" value="TIDAK" style="text;html=1;align=center;verticalAlign=middle;resizable=0;points=[];autosize=1;strokeColor=none;fillColor=none;" vertex="1" parent="WIyWlLk6GJQsqaUBKTNV-1">
          <mxGeometry x="410" y="147" width="60" height="30" as="geometry" />
        </mxCell>
        <mxCell id="f-X-oOXz8kQgfOrzTP2Q-32" style="edgeStyle=orthogonalEdgeStyle;rounded=0;orthogonalLoop=1;jettySize=auto;html=1;exitX=0.5;exitY=1;exitDx=0;exitDy=0;" edge="1" parent="WIyWlLk6GJQsqaUBKTNV-1" source="f-X-oOXz8kQgfOrzTP2Q-10" target="f-X-oOXz8kQgfOrzTP2Q-25">
          <mxGeometry relative="1" as="geometry" />
        </mxCell>
        <mxCell id="f-X-oOXz8kQgfOrzTP2Q-10" value="Register Berhasil?" style="whiteSpace=wrap;html=1;" vertex="1" parent="WIyWlLk6GJQsqaUBKTNV-1">
          <mxGeometry x="429" y="330" width="121" height="60" as="geometry" />
        </mxCell>
        <mxCell id="f-X-oOXz8kQgfOrzTP2Q-18" style="edgeStyle=orthogonalEdgeStyle;rounded=0;orthogonalLoop=1;jettySize=auto;html=1;exitX=1;exitY=0.5;exitDx=0;exitDy=0;entryX=0.992;entryY=0.354;entryDx=0;entryDy=0;entryPerimeter=0;" edge="1" parent="WIyWlLk6GJQsqaUBKTNV-1" source="f-X-oOXz8kQgfOrzTP2Q-10" target="f-X-oOXz8kQgfOrzTP2Q-6">
          <mxGeometry relative="1" as="geometry">
            <Array as="points">
              <mxPoint x="580" y="360" />
              <mxPoint x="580" y="235" />
            </Array>
          </mxGeometry>
        </mxCell>
        <mxCell id="f-X-oOXz8kQgfOrzTP2Q-19" value="TIDAK" style="text;html=1;align=center;verticalAlign=middle;resizable=0;points=[];autosize=1;strokeColor=none;fillColor=none;" vertex="1" parent="WIyWlLk6GJQsqaUBKTNV-1">
          <mxGeometry x="560" y="360" width="60" height="30" as="geometry" />
        </mxCell>
        <mxCell id="f-X-oOXz8kQgfOrzTP2Q-22" style="edgeStyle=orthogonalEdgeStyle;rounded=0;orthogonalLoop=1;jettySize=auto;html=1;exitX=0;exitY=0.5;exitDx=0;exitDy=0;entryX=0;entryY=0.25;entryDx=0;entryDy=0;" edge="1" parent="WIyWlLk6GJQsqaUBKTNV-1">
          <mxGeometry relative="1" as="geometry">
            <mxPoint x="122.5" y="361" as="sourcePoint" />
            <mxPoint x="130" y="232.75" as="targetPoint" />
            <Array as="points">
              <mxPoint x="90" y="361" />
              <mxPoint x="90" y="233" />
              <mxPoint x="120" y="233" />
            </Array>
          </mxGeometry>
        </mxCell>
        <mxCell id="f-X-oOXz8kQgfOrzTP2Q-29" style="edgeStyle=orthogonalEdgeStyle;rounded=0;orthogonalLoop=1;jettySize=auto;html=1;exitX=0.5;exitY=1;exitDx=0;exitDy=0;entryX=0.501;entryY=0.013;entryDx=0;entryDy=0;entryPerimeter=0;" edge="1" parent="WIyWlLk6GJQsqaUBKTNV-1" source="f-X-oOXz8kQgfOrzTP2Q-20" target="f-X-oOXz8kQgfOrzTP2Q-25">
          <mxGeometry relative="1" as="geometry" />
        </mxCell>
        <mxCell id="f-X-oOXz8kQgfOrzTP2Q-20" value="Login Berhasil?" style="whiteSpace=wrap;html=1;" vertex="1" parent="WIyWlLk6GJQsqaUBKTNV-1">
          <mxGeometry x="122.5" y="330" width="120" height="60" as="geometry" />
        </mxCell>
        <mxCell id="f-X-oOXz8kQgfOrzTP2Q-23" value="TIDAK" style="text;html=1;align=center;verticalAlign=middle;resizable=0;points=[];autosize=1;strokeColor=none;fillColor=none;" vertex="1" parent="WIyWlLk6GJQsqaUBKTNV-1">
          <mxGeometry x="62.5" y="360" width="60" height="30" as="geometry" />
        </mxCell>
        <mxCell id="f-X-oOXz8kQgfOrzTP2Q-34" value="" style="edgeStyle=orthogonalEdgeStyle;rounded=0;orthogonalLoop=1;jettySize=auto;html=1;" edge="1" parent="WIyWlLk6GJQsqaUBKTNV-1" source="f-X-oOXz8kQgfOrzTP2Q-25" target="f-X-oOXz8kQgfOrzTP2Q-33">
          <mxGeometry relative="1" as="geometry" />
        </mxCell>
        <mxCell id="f-X-oOXz8kQgfOrzTP2Q-25" value="Halaman Dashboard" style="whiteSpace=wrap;html=1;" vertex="1" parent="WIyWlLk6GJQsqaUBKTNV-1">
          <mxGeometry x="275" y="485.69" width="120" height="60" as="geometry" />
        </mxCell>
        <mxCell id="f-X-oOXz8kQgfOrzTP2Q-30" value="YA" style="text;html=1;align=center;verticalAlign=middle;resizable=0;points=[];autosize=1;strokeColor=none;fillColor=none;" vertex="1" parent="WIyWlLk6GJQsqaUBKTNV-1">
          <mxGeometry x="315" y="410" width="40" height="30" as="geometry" />
        </mxCell>
        <mxCell id="f-X-oOXz8kQgfOrzTP2Q-36" value="" style="edgeStyle=orthogonalEdgeStyle;rounded=0;orthogonalLoop=1;jettySize=auto;html=1;" edge="1" parent="WIyWlLk6GJQsqaUBKTNV-1" source="f-X-oOXz8kQgfOrzTP2Q-33" target="f-X-oOXz8kQgfOrzTP2Q-35">
          <mxGeometry relative="1" as="geometry">
            <Array as="points">
              <mxPoint x="340" y="680" />
              <mxPoint x="340" y="680" />
            </Array>
          </mxGeometry>
        </mxCell>
        <mxCell id="f-X-oOXz8kQgfOrzTP2Q-33" value="Admin Memilih&amp;nbsp;&lt;div&gt;Data Tabel&lt;/div&gt;" style="whiteSpace=wrap;html=1;" vertex="1" parent="WIyWlLk6GJQsqaUBKTNV-1">
          <mxGeometry x="274" y="570" width="120" height="60" as="geometry" />
        </mxCell>
        <mxCell id="f-X-oOXz8kQgfOrzTP2Q-35" value="" style="html=1;points=[];perimeter=orthogonalPerimeter;fillColor=strokeColor;rotation=90;strokeWidth=0;rounded=1;" vertex="1" parent="WIyWlLk6GJQsqaUBKTNV-1">
          <mxGeometry x="335.04" y="460" width="5" height="388.66" as="geometry" />
        </mxCell>
        <mxCell id="f-X-oOXz8kQgfOrzTP2Q-40" value="" style="edgeStyle=orthogonalEdgeStyle;rounded=0;orthogonalLoop=1;jettySize=auto;html=1;" edge="1" parent="WIyWlLk6GJQsqaUBKTNV-1" target="f-X-oOXz8kQgfOrzTP2Q-44">
          <mxGeometry relative="1" as="geometry">
            <mxPoint x="188.5" y="654.31" as="sourcePoint" />
            <mxPoint x="188.5" y="684.31" as="targetPoint" />
            <Array as="points" />
          </mxGeometry>
        </mxCell>
        <mxCell id="f-X-oOXz8kQgfOrzTP2Q-41" value="" style="edgeStyle=orthogonalEdgeStyle;rounded=0;orthogonalLoop=1;jettySize=auto;html=1;" edge="1" parent="WIyWlLk6GJQsqaUBKTNV-1" target="f-X-oOXz8kQgfOrzTP2Q-45">
          <mxGeometry relative="1" as="geometry">
            <mxPoint x="333.21" y="655.31" as="sourcePoint" />
            <mxPoint x="333.5" y="694.31" as="targetPoint" />
            <Array as="points" />
          </mxGeometry>
        </mxCell>
        <mxCell id="f-X-oOXz8kQgfOrzTP2Q-42" value="" style="edgeStyle=orthogonalEdgeStyle;rounded=0;orthogonalLoop=1;jettySize=auto;html=1;" edge="1" parent="WIyWlLk6GJQsqaUBKTNV-1" target="f-X-oOXz8kQgfOrzTP2Q-46">
          <mxGeometry relative="1" as="geometry">
            <mxPoint x="486.21" y="655.31" as="sourcePoint" />
            <mxPoint x="486.5" y="694.31" as="targetPoint" />
            <Array as="points" />
          </mxGeometry>
        </mxCell>
        <mxCell id="f-X-oOXz8kQgfOrzTP2Q-48" value="" style="edgeStyle=orthogonalEdgeStyle;rounded=0;orthogonalLoop=1;jettySize=auto;html=1;" edge="1" parent="WIyWlLk6GJQsqaUBKTNV-1" source="f-X-oOXz8kQgfOrzTP2Q-44">
          <mxGeometry relative="1" as="geometry">
            <mxPoint x="189.0000000000001" y="774.31" as="targetPoint" />
          </mxGeometry>
        </mxCell>
        <mxCell id="f-X-oOXz8kQgfOrzTP2Q-44" value="Tabel Penulis" style="rounded=0;whiteSpace=wrap;html=1;" vertex="1" parent="WIyWlLk6GJQsqaUBKTNV-1">
          <mxGeometry x="136" y="690.31" width="106" height="50" as="geometry" />
        </mxCell>
        <mxCell id="f-X-oOXz8kQgfOrzTP2Q-51" value="" style="edgeStyle=orthogonalEdgeStyle;rounded=0;orthogonalLoop=1;jettySize=auto;html=1;" edge="1" parent="WIyWlLk6GJQsqaUBKTNV-1" source="f-X-oOXz8kQgfOrzTP2Q-45">
          <mxGeometry relative="1" as="geometry">
            <mxPoint x="333.5" y="774.31" as="targetPoint" />
          </mxGeometry>
        </mxCell>
        <mxCell id="f-X-oOXz8kQgfOrzTP2Q-45" value="Tabel Artikel" style="rounded=0;whiteSpace=wrap;html=1;" vertex="1" parent="WIyWlLk6GJQsqaUBKTNV-1">
          <mxGeometry x="280.5" y="690.31" width="106" height="50" as="geometry" />
        </mxCell>
        <mxCell id="f-X-oOXz8kQgfOrzTP2Q-52" value="" style="edgeStyle=orthogonalEdgeStyle;rounded=0;orthogonalLoop=1;jettySize=auto;html=1;" edge="1" parent="WIyWlLk6GJQsqaUBKTNV-1" source="f-X-oOXz8kQgfOrzTP2Q-46">
          <mxGeometry relative="1" as="geometry">
            <mxPoint x="486.5" y="772.31" as="targetPoint" />
          </mxGeometry>
        </mxCell>
        <mxCell id="f-X-oOXz8kQgfOrzTP2Q-46" value="Tabel Kategori" style="rounded=0;whiteSpace=wrap;html=1;" vertex="1" parent="WIyWlLk6GJQsqaUBKTNV-1">
          <mxGeometry x="433.5" y="690.31" width="106" height="50" as="geometry" />
        </mxCell>
        <mxCell id="f-X-oOXz8kQgfOrzTP2Q-55" value="" style="edgeStyle=orthogonalEdgeStyle;rounded=0;orthogonalLoop=1;jettySize=auto;html=1;" edge="1" parent="WIyWlLk6GJQsqaUBKTNV-1" target="f-X-oOXz8kQgfOrzTP2Q-66">
          <mxGeometry relative="1" as="geometry">
            <mxPoint x="335.08" y="822.31" as="sourcePoint" />
            <mxPoint x="335.1387599999999" y="860.7149999999999" as="targetPoint" />
            <Array as="points">
              <mxPoint x="335.5" y="854.31" />
              <mxPoint x="335.5" y="854.31" />
            </Array>
          </mxGeometry>
        </mxCell>
        <mxCell id="f-X-oOXz8kQgfOrzTP2Q-56" value="" style="edgeStyle=orthogonalEdgeStyle;rounded=0;orthogonalLoop=1;jettySize=auto;html=1;entryX=0.215;entryY=0.121;entryDx=0;entryDy=0;entryPerimeter=0;" edge="1" parent="WIyWlLk6GJQsqaUBKTNV-1">
          <mxGeometry relative="1" as="geometry">
            <mxPoint x="487.58" y="822.31" as="sourcePoint" />
            <mxPoint x="487.84214" y="862.2150000000001" as="targetPoint" />
            <Array as="points" />
          </mxGeometry>
        </mxCell>
        <mxCell id="f-X-oOXz8kQgfOrzTP2Q-59" value="CRUD" style="shape=parallelogram;perimeter=parallelogramPerimeter;whiteSpace=wrap;html=1;fixedSize=1;" vertex="1" parent="WIyWlLk6GJQsqaUBKTNV-1">
          <mxGeometry x="277.54" y="772.31" width="120" height="50" as="geometry" />
        </mxCell>
        <mxCell id="f-X-oOXz8kQgfOrzTP2Q-60" value="CRUD" style="shape=parallelogram;perimeter=parallelogramPerimeter;whiteSpace=wrap;html=1;fixedSize=1;" vertex="1" parent="WIyWlLk6GJQsqaUBKTNV-1">
          <mxGeometry x="424.5" y="772.31" width="120" height="50" as="geometry" />
        </mxCell>
        <mxCell id="f-X-oOXz8kQgfOrzTP2Q-61" value="CRUD" style="shape=parallelogram;perimeter=parallelogramPerimeter;whiteSpace=wrap;html=1;fixedSize=1;" vertex="1" parent="WIyWlLk6GJQsqaUBKTNV-1">
          <mxGeometry x="136" y="772.31" width="120" height="50" as="geometry" />
        </mxCell>
        <mxCell id="f-X-oOXz8kQgfOrzTP2Q-64" value="" style="edgeStyle=orthogonalEdgeStyle;rounded=0;orthogonalLoop=1;jettySize=auto;html=1;entryX=0.274;entryY=0.891;entryDx=0;entryDy=0;entryPerimeter=0;" edge="1" parent="WIyWlLk6GJQsqaUBKTNV-1">
          <mxGeometry relative="1" as="geometry">
            <mxPoint x="188.82999999999998" y="822.31" as="sourcePoint" />
            <mxPoint x="188.5739400000001" y="862.51" as="targetPoint" />
            <Array as="points">
              <mxPoint x="188.5" y="852.31" />
            </Array>
          </mxGeometry>
        </mxCell>
        <mxCell id="f-X-oOXz8kQgfOrzTP2Q-65" value="Hasil CRUD /&lt;div&gt;Tabel Penulis&lt;/div&gt;" style="shape=parallelogram;perimeter=parallelogramPerimeter;whiteSpace=wrap;html=1;fixedSize=1;" vertex="1" parent="WIyWlLk6GJQsqaUBKTNV-1">
          <mxGeometry x="130" y="864.31" width="120" height="50" as="geometry" />
        </mxCell>
        <mxCell id="f-X-oOXz8kQgfOrzTP2Q-66" value="Hasil CRUD /&lt;div&gt;Tabel Artikel&lt;/div&gt;" style="shape=parallelogram;perimeter=parallelogramPerimeter;whiteSpace=wrap;html=1;fixedSize=1;" vertex="1" parent="WIyWlLk6GJQsqaUBKTNV-1">
          <mxGeometry x="272.5" y="864.31" width="120" height="50" as="geometry" />
        </mxCell>
        <mxCell id="f-X-oOXz8kQgfOrzTP2Q-67" value="Hasil CRUD /&amp;nbsp;&lt;div&gt;Tabel Kategori&lt;/div&gt;" style="shape=parallelogram;perimeter=parallelogramPerimeter;whiteSpace=wrap;html=1;fixedSize=1;" vertex="1" parent="WIyWlLk6GJQsqaUBKTNV-1">
          <mxGeometry x="424.5" y="863.31" width="120" height="50" as="geometry" />
        </mxCell>
        <mxCell id="f-X-oOXz8kQgfOrzTP2Q-70" value="" style="edgeStyle=orthogonalEdgeStyle;rounded=0;orthogonalLoop=1;jettySize=auto;html=1;entryX=-0.366;entryY=0.527;entryDx=0;entryDy=0;entryPerimeter=0;" edge="1" parent="WIyWlLk6GJQsqaUBKTNV-1" target="f-X-oOXz8kQgfOrzTP2Q-72">
          <mxGeometry relative="1" as="geometry">
            <mxPoint x="332.34" y="914.31" as="sourcePoint" />
            <mxPoint x="332.0839400000001" y="954.51" as="targetPoint" />
            <Array as="points">
              <mxPoint x="332.5" y="944.31" />
            </Array>
          </mxGeometry>
        </mxCell>
        <mxCell id="f-X-oOXz8kQgfOrzTP2Q-72" value="" style="html=1;points=[];perimeter=orthogonalPerimeter;fillColor=strokeColor;rotation=90;strokeWidth=0;rounded=1;" vertex="1" parent="WIyWlLk6GJQsqaUBKTNV-1">
          <mxGeometry x="340.04" y="762.31" width="5" height="388.66" as="geometry" />
        </mxCell>
        <mxCell id="f-X-oOXz8kQgfOrzTP2Q-73" value="" style="edgeStyle=orthogonalEdgeStyle;rounded=0;orthogonalLoop=1;jettySize=auto;html=1;entryX=-0.366;entryY=0.527;entryDx=0;entryDy=0;entryPerimeter=0;" edge="1" parent="WIyWlLk6GJQsqaUBKTNV-1">
          <mxGeometry relative="1" as="geometry">
            <mxPoint x="487.78999999999996" y="913.31" as="sourcePoint" />
            <mxPoint x="487.95" y="953.31" as="targetPoint" />
            <Array as="points">
              <mxPoint x="487.95" y="943.31" />
            </Array>
          </mxGeometry>
        </mxCell>
        <mxCell id="f-X-oOXz8kQgfOrzTP2Q-74" value="" style="edgeStyle=orthogonalEdgeStyle;rounded=0;orthogonalLoop=1;jettySize=auto;html=1;entryX=-0.366;entryY=0.527;entryDx=0;entryDy=0;entryPerimeter=0;" edge="1" parent="WIyWlLk6GJQsqaUBKTNV-1">
          <mxGeometry relative="1" as="geometry">
            <mxPoint x="188.78999999999996" y="913.31" as="sourcePoint" />
            <mxPoint x="188.95" y="953.31" as="targetPoint" />
            <Array as="points">
              <mxPoint x="188.95" y="943.31" />
            </Array>
          </mxGeometry>
        </mxCell>
        <mxCell id="f-X-oOXz8kQgfOrzTP2Q-77" value="" style="edgeStyle=orthogonalEdgeStyle;rounded=0;orthogonalLoop=1;jettySize=auto;html=1;entryX=-0.366;entryY=0.527;entryDx=0;entryDy=0;entryPerimeter=0;" edge="1" parent="WIyWlLk6GJQsqaUBKTNV-1">
          <mxGeometry relative="1" as="geometry">
            <mxPoint x="332.34" y="959" as="sourcePoint" />
            <mxPoint x="332" y="996.69" as="targetPoint" />
            <Array as="points">
              <mxPoint x="332.5" y="989" />
            </Array>
          </mxGeometry>
        </mxCell>
        <mxCell id="f-X-oOXz8kQgfOrzTP2Q-80" value="" style="edgeStyle=orthogonalEdgeStyle;rounded=0;orthogonalLoop=1;jettySize=auto;html=1;" edge="1" parent="WIyWlLk6GJQsqaUBKTNV-1" source="f-X-oOXz8kQgfOrzTP2Q-78" target="f-X-oOXz8kQgfOrzTP2Q-79">
          <mxGeometry relative="1" as="geometry" />
        </mxCell>
        <mxCell id="f-X-oOXz8kQgfOrzTP2Q-78" value="&lt;div&gt;Kembali Ke&lt;/div&gt;Halaman Dashboard" style="whiteSpace=wrap;html=1;" vertex="1" parent="WIyWlLk6GJQsqaUBKTNV-1">
          <mxGeometry x="281.54" y="998" width="106.5" height="50" as="geometry" />
        </mxCell>
        <mxCell id="f-X-oOXz8kQgfOrzTP2Q-79" value="Selesai" style="ellipse;whiteSpace=wrap;html=1;" vertex="1" parent="WIyWlLk6GJQsqaUBKTNV-1">
          <mxGeometry x="290" y="1070" width="90" height="60" as="geometry" />
        </mxCell>
      </root>
    </mxGraphModel>
  </diagram>
</mxfile>
